<svg id="Layer_1" data-name="Layer 1" xmlns="http://www.w3.org/2000/svg" xmlns:xlink="http://www.w3.org/1999/xlink" viewBox="0 0 783.39 1028.66"><defs><style>.cls-1{fill:none;}.cls-2{clip-path:url(#clip-path);}.cls-3{clip-path:url(#clip-path-2);}.cls-4{clip-path:url(#clip-path-3);}.cls-5{clip-path:url(#clip-path-4);}.cls-6{clip-path:url(#clip-path-5);}.cls-7{clip-path:url(#clip-path-6);}.cls-8{clip-path:url(#clip-path-7);}.cls-9{fill:url(#linear-gradient);}.cls-10{clip-path:url(#clip-path-8);}.cls-11{clip-path:url(#clip-path-9);}.cls-12{clip-path:url(#clip-path-10);}.cls-13{clip-path:url(#clip-path-11);}.cls-14{clip-path:url(#clip-path-12);}.cls-15{clip-path:url(#clip-path-13);}.cls-16{fill:url(#linear-gradient-2);}</style><clipPath id="clip-path" transform="translate(-249.28 102.49)"><rect class="cls-1" x="247.65" y="11.9" width="784.12" height="1007.01"/></clipPath><clipPath id="clip-path-2" transform="translate(-249.28 102.49)"><path class="cls-1" d="M529.78,458.22S550.21,541,628.93,534s95.29-90.73,95.29-90.73,13.14.71,19.12,9.46c0,0,145.58,28.83,169.49,61.21s62.75,84.12,80.7,190.51,38.25,382.5,38.25,382.5l-784.12-6.37S300.81,654.33,318,612.36c8.69-21.19,10-78.61,85.7-101.37s108.6-32.21,126-52.77"/></clipPath><clipPath id="clip-path-3" transform="translate(-249.28 102.49)"><rect class="cls-1" x="248.53" y="350.8" width="784.15" height="575.68"/></clipPath><clipPath id="clip-path-4" transform="translate(-249.28 102.49)"><rect class="cls-1" x="248.73" y="350.8" width="783.94" height="575.6"/></clipPath><clipPath id="clip-path-5" transform="translate(-249.28 102.49)"><rect class="cls-1" x="248.91" y="350.8" width="783.76" height="575.52"/></clipPath><clipPath id="clip-path-6" transform="translate(-249.28 102.49)"><rect class="cls-1" x="249.1" y="350.8" width="783.57" height="575.45"/></clipPath><clipPath id="clip-path-7" transform="translate(-249.28 102.49)"><rect class="cls-1" x="249.28" y="350.8" width="783.39" height="575.36"/></clipPath><linearGradient id="linear-gradient" x2="1" gradientTransform="matrix(0, -1197.83, -1197.83, 0, 391.32, 1060.49)" gradientUnits="userSpaceOnUse"><stop offset="0" stop-color="#2e9b88"/><stop offset="0.22" stop-color="#37b8a2"/><stop offset="0.41" stop-color="#3dceb5"/><stop offset="0.97" stop-color="#3dceb5"/><stop offset="1" stop-color="#3dceb5"/></linearGradient><clipPath id="clip-path-8" transform="translate(-249.28 102.49)"><path class="cls-1" d="M770.44,224.85c12.24,122.28-43.87,191.61-49.64,195.07L715,423.38s-2.3,77.34,100.43,80.8S922.79,413,895.07,386.45c0,0-13.85,28.48-38.48,21.54,0,0,35-10,23.48-40,0,0-14.63,19.23-32.7,4.63S929.14,36.2,653.84,12.48c0,0-213.13-21.54-225.44,197,0,0-6.55,32.14-34.82,24.62s-14.42-31.74-14.42-31.74-77.35,49.64-10.4,106.2c0,0-26.55,10.18-38.07-13.65,0,0-5.4,84.64,56.91,83.87,0,0-23.85,16.93-45.39,7.69,0,0,78.5,132.36,204.69,40.78,0,0-29.25-53.09-26.18-107s86.19-94.65,95.42-167c0,0,90,0,126.2,64.65,0,0-12.3-49.27-46.94-68.5,0,0,69.23,17.68,75,75.4"/></clipPath><clipPath id="clip-path-9" transform="translate(-249.28 102.49)"><rect class="cls-1" x="301.94" y="-102.49" width="627.32" height="527.87"/></clipPath><clipPath id="clip-path-10" transform="translate(-249.28 102.49)"><rect class="cls-1" x="301.94" y="-102.49" width="627.32" height="527.67"/></clipPath><clipPath id="clip-path-11" transform="translate(-249.28 102.49)"><rect class="cls-1" x="301.94" y="-102.49" width="627.32" height="527.45"/></clipPath><clipPath id="clip-path-12" transform="translate(-249.28 102.49)"><rect class="cls-1" x="301.94" y="-102.49" width="627.32" height="527.24"/></clipPath><clipPath id="clip-path-13" transform="translate(-249.28 102.49)"><rect class="cls-1" x="301.94" y="-102.49" width="627.32" height="527.03"/></clipPath><linearGradient id="linear-gradient-2" gradientTransform="matrix(0, -1168.46, -1168.46, 0, 370.92, 1044.58)" xlink:href="#linear-gradient"/></defs><title>Barbara</title><g class="cls-2"><g class="cls-3"><g class="cls-4"><g class="cls-5"><g class="cls-6"><g class="cls-7"><g class="cls-8"><rect class="cls-9" y="453.29" width="783.39" height="575.36"/></g></g></g></g></g></g><g class="cls-10"><g class="cls-11"><g class="cls-12"><g class="cls-13"><g class="cls-14"><g class="cls-15"><rect class="cls-16" x="52.66" width="627.32" height="527.03"/></g></g></g></g></g></g></g></svg>