<svg id="Layer_1" data-name="Layer 1" xmlns="http://www.w3.org/2000/svg" xmlns:xlink="http://www.w3.org/1999/xlink" viewBox="0 0 728.65 948.24"><defs><style>.cls-1{fill:none;}.cls-2{clip-path:url(#clip-path);}.cls-3{clip-path:url(#clip-path-2);}.cls-4{clip-path:url(#clip-path-3);}.cls-5{clip-path:url(#clip-path-4);}.cls-6{clip-path:url(#clip-path-5);}.cls-7{clip-path:url(#clip-path-6);}.cls-8{clip-path:url(#clip-path-7);}.cls-9{fill:url(#linear-gradient);}.cls-10{clip-path:url(#clip-path-8);}.cls-11{clip-path:url(#clip-path-9);}.cls-12{clip-path:url(#clip-path-10);}.cls-13{clip-path:url(#clip-path-11);}.cls-14{clip-path:url(#clip-path-12);}.cls-15{clip-path:url(#clip-path-13);}.cls-16{fill:url(#linear-gradient-2);}</style><clipPath id="clip-path" transform="translate(-276.75 52.32)"><rect class="cls-1" x="278.98" y="40.8" width="722.82" height="949.91"/></clipPath><clipPath id="clip-path-2" transform="translate(-276.75 52.32)"><path class="cls-1" d="M525.72,502.43s70.43,90.79,92.88,96.4c12.92,3.22,104-113.69,104-113.69S736,486,742,496.06c0,0,147.44,33.22,171.67,70.56s58.58,193.47,76.74,316.11,9.13,152.61,9.13,152.61H279s30.27-332.8,32.3-359.05,10.09-88.7,86.79-114.93,110-35.22,127.66-58.93"/></clipPath><clipPath id="clip-path-3" transform="translate(-276.75 52.32)"><rect class="cls-1" x="275.78" y="390.34" width="729.62" height="505.58"/></clipPath><clipPath id="clip-path-4" transform="translate(-276.75 52.32)"><rect class="cls-1" x="276.06" y="390.34" width="729.34" height="505.58"/></clipPath><clipPath id="clip-path-5" transform="translate(-276.75 52.32)"><rect class="cls-1" x="276.28" y="390.34" width="729.11" height="505.58"/></clipPath><clipPath id="clip-path-6" transform="translate(-276.75 52.32)"><rect class="cls-1" x="276.51" y="390.34" width="728.89" height="505.58"/></clipPath><clipPath id="clip-path-7" transform="translate(-276.75 52.32)"><rect class="cls-1" x="276.75" y="390.34" width="728.65" height="505.58"/></clipPath><linearGradient id="linear-gradient" x2="1" gradientTransform="matrix(0, -1081.31, -1081.31, 0, 360.44, 1035.56)" gradientUnits="userSpaceOnUse"><stop offset="0" stop-color="#0071bc"/><stop offset="0.04" stop-color="#0071bc"/><stop offset="0.07" stop-color="#097ec4"/><stop offset="0.13" stop-color="#1792d1"/><stop offset="0.2" stop-color="#21a0db"/><stop offset="0.28" stop-color="#27a8e0"/><stop offset="0.42" stop-color="#29abe2"/><stop offset="1" stop-color="#29abe2"/></linearGradient><clipPath id="clip-path-8" transform="translate(-276.75 52.32)"><path class="cls-1" d="M476.06,293.48s0-74.25,125.73-83.82c0,0,46.72-3,57.49-23.36,0,0-.6,59.28-65.26,72.46,0,0,100,5.39,123.34-34.13,0,0-5.39,44.91-26.94,64.07,0,0,32.93-.6,44.9-25.14,0,0,28.75,122.74-27.54,174.84,0,0,46.12-29.53,64.48-95.81S836.12,118.24,670.07,79.92c0,0,24.74-3.19,28.34-39.11,0,0-15.56,21.17-81,19.17S391,88.71,395.82,280.32s67.06,293.39-6,314.95c0,0,111.37-6,124.55-52.69s4.78-73,4.78-73-45.5-22.75-43.11-176"/></clipPath><clipPath id="clip-path-9" transform="translate(-276.75 52.32)"><rect class="cls-1" x="387.34" y="-52.32" width="446.28" height="554.45"/></clipPath><clipPath id="clip-path-10" transform="translate(-276.75 52.32)"><rect class="cls-1" x="387.66" y="-52.32" width="445.96" height="554.2"/></clipPath><clipPath id="clip-path-11" transform="translate(-276.75 52.32)"><rect class="cls-1" x="387.93" y="-52.32" width="445.69" height="554.2"/></clipPath><clipPath id="clip-path-12" transform="translate(-276.75 52.32)"><rect class="cls-1" x="388.22" y="-52.32" width="445.41" height="554.2"/></clipPath><clipPath id="clip-path-13" transform="translate(-276.75 52.32)"><rect class="cls-1" x="388.5" y="-52.32" width="445.13" height="554.2"/></clipPath><linearGradient id="linear-gradient-2" gradientTransform="matrix(0, -1082.22, -1082.22, 0, 311.72, 1037.72)" xlink:href="#linear-gradient"/></defs><title>Dylan</title><g class="cls-2"><g class="cls-3"><g class="cls-4"><g class="cls-5"><g class="cls-6"><g class="cls-7"><g class="cls-8"><rect class="cls-9" y="442.67" width="728.65" height="505.58"/></g></g></g></g></g></g><g class="cls-10"><g class="cls-11"><g class="cls-12"><g class="cls-13"><g class="cls-14"><g class="cls-15"><rect class="cls-16" x="111.75" width="445.13" height="554.2"/></g></g></g></g></g></g></g></svg>