<?xml version="1.0" encoding="utf-8"?>
<!-- Generator: Adobe Illustrator 21.1.0, SVG Export Plug-In . SVG Version: 6.00 Build 0)  -->
<svg version="1.1" id="Layer_1" xmlns="http://www.w3.org/2000/svg" xmlns:xlink="http://www.w3.org/1999/xlink" x="0px" y="0px"
	 viewBox="0 0 1280 1024" style="enable-background:new 0 0 1280 1024;" xml:space="preserve">
<style type="text/css">
	.st0{clip-path:url(#SVGID_2_);}
	.st1{clip-path:url(#SVGID_4_);}
	.st2{clip-path:url(#SVGID_6_);}
	.st3{clip-path:url(#SVGID_8_);}
	.st4{clip-path:url(#SVGID_10_);}
	.st5{clip-path:url(#SVGID_12_);}
	.st6{clip-path:url(#SVGID_14_);fill:url(#SVGID_15_);}
	.st7{clip-path:url(#SVGID_17_);}
	.st8{clip-path:url(#SVGID_19_);}
	.st9{clip-path:url(#SVGID_21_);}
	.st10{clip-path:url(#SVGID_23_);}
	.st11{clip-path:url(#SVGID_25_);}
	.st12{clip-path:url(#SVGID_27_);fill:url(#SVGID_28_);}
	.st13{clip-path:url(#SVGID_30_);}
	.st14{clip-path:url(#SVGID_32_);}
	.st15{clip-path:url(#SVGID_34_);}
	.st16{clip-path:url(#SVGID_36_);}
	.st17{clip-path:url(#SVGID_38_);}
	.st18{clip-path:url(#SVGID_40_);fill:url(#SVGID_41_);}
	.st19{clip-path:url(#SVGID_43_);}
	.st20{clip-path:url(#SVGID_45_);}
	.st21{clip-path:url(#SVGID_47_);}
	.st22{clip-path:url(#SVGID_49_);}
	.st23{clip-path:url(#SVGID_51_);}
	.st24{clip-path:url(#SVGID_53_);fill:url(#SVGID_54_);}
	.st25{clip-path:url(#SVGID_56_);}
	.st26{clip-path:url(#SVGID_58_);}
	.st27{clip-path:url(#SVGID_60_);}
	.st28{clip-path:url(#SVGID_62_);}
	.st29{clip-path:url(#SVGID_64_);}
	.st30{clip-path:url(#SVGID_66_);fill:url(#SVGID_67_);}
</style>
<g>
	<defs>
		<rect id="SVGID_1_" x="246.3" y="18.8" width="787.1" height="990"/>
	</defs>
	<clipPath id="SVGID_2_">
		<use xlink:href="#SVGID_1_"  style="overflow:visible;"/>
	</clipPath>
	<g class="st0">
		<defs>
			<path id="SVGID_3_" d="M619.1,15.3c0,0,84.8,8.6,130.2,60.3c45.5,51.6,26.6,117.5,15.3,161.4c0,0-29.1,79.3-29.6,84.1
				c-0.5,4.7-3.5-64.4-12.4-84.5c-8.9-20,6.6-76-26.6-98.4c-33.2-22.3-81.4-13.7-81.4-13.7s-68.7-20.9-102.1,16.1
				c-33.5,37-15.3,66.3-20.4,95.1c-5.1,28.9-8.6,65.7-8.6,65.7s-12.1-81.4-13.9-112.7C467.8,157.3,440.2,43.8,619.1,15.3"/>
		</defs>
		<clipPath id="SVGID_4_">
			<use xlink:href="#SVGID_3_"  style="overflow:visible;"/>
		</clipPath>
		<g class="st1">
			<g>
				<defs>
					<rect id="SVGID_5_" x="442.1" y="-67.3" width="354.6" height="307.1"/>
				</defs>
				<clipPath id="SVGID_6_">
					<use xlink:href="#SVGID_5_"  style="overflow:visible;"/>
				</clipPath>
				<g class="st2">
					<defs>
						<rect id="SVGID_7_" x="442.3" y="-67.3" width="354.4" height="307.1"/>
					</defs>
					<clipPath id="SVGID_8_">
						<use xlink:href="#SVGID_7_"  style="overflow:visible;"/>
					</clipPath>
					<g class="st3">
						<defs>
							<rect id="SVGID_9_" x="442.5" y="-67.3" width="354.2" height="307.1"/>
						</defs>
						<clipPath id="SVGID_10_">
							<use xlink:href="#SVGID_9_"  style="overflow:visible;"/>
						</clipPath>
						<g class="st4">
							<defs>
								<rect id="SVGID_11_" x="442.7" y="-67.3" width="354" height="307.1"/>
							</defs>
							<clipPath id="SVGID_12_">
								<use xlink:href="#SVGID_11_"  style="overflow:visible;"/>
							</clipPath>
							<g class="st5">
								<defs>
									<rect id="SVGID_13_" x="442.9" y="-67.3" width="353.8" height="307.1"/>
								</defs>
								<clipPath id="SVGID_14_">
									<use xlink:href="#SVGID_13_"  style="overflow:visible;"/>
								</clipPath>
								
									<linearGradient id="SVGID_15_" gradientUnits="userSpaceOnUse" x1="0" y1="0" x2="1" y2="0" gradientTransform="matrix(0 -1048.4512 -1048.4512 0 624.5789 978.5116)">
									<stop  offset="0" style="stop-color:#802B3B"/>
									<stop  offset="8.104218e-02" style="stop-color:#913143"/>
									<stop  offset="0.1877" style="stop-color:#9F354A"/>
									<stop  offset="0.3174" style="stop-color:#A7384E"/>
									<stop  offset="0.5327" style="stop-color:#AA394F"/>
									<stop  offset="0.966" style="stop-color:#AA394F"/>
									<stop  offset="1" style="stop-color:#AA394F"/>
								</linearGradient>
								<rect x="442.9" y="-67.3" class="st6" width="353.8" height="307.1"/>
							</g>
						</g>
					</g>
				</g>
			</g>
		</g>
	</g>
	<g class="st0">
		<defs>
			<path id="SVGID_16_" d="M527.5,421.7c0,0-6.1,30.9,10.9,55c17,24.1,60.9,63.3,74.3,59.6c13.4-3.7,101.3-83,107-104.4
				c5.6-21.5-1.2-25.7-1.2-25.7s33.9,28.7,35.5,36.6c1.7,7.9,2.6,16.5,2.6,16.5s122.8,12.8,172.9,53.5c50,40.7,81.4,164.7,94.2,257
				c12.8,92.3,19,216.3-21.5,252c-40.5,35.7-108.7,34-108.7,34s-58.1,6.5-62.7-8.4c-4.6-14.8,11.3-43.3-1.1-76.8
				c-12.3-33.5-24.2-85-12.8-104.3l33.1-7.6c0,0-9.4-40.4-40.6-39.8c-31.2,0.7-39.7,39.4-76.7,38.3c-37.1-1.1-110.5-22.5-110.5-22.5
				l0.2-216.9l-6.3-22.2l16-29.6l42.3-28.3L661.4,522l-41.1,29.7l-15.6-0.3l-36.1-23.8l-17.3,18.7l37.4,22.7l-6.5,18.6l-17.2,29.5
				L543.8,814c0,0-51.7-10.9-85.1,0.4c-33.4,11.2-56,47.4-53.4,70.4c0,0-2.9,17.7,22.5,15.3c0,0-10.2,158.4-10.6,162
				c-0.3,3.6-40.7,11.7-80.7,4.3c-40-7.4-79.4-60.2-87-106.5c-7.6-46.3-0.8-181,7.9-235.3c8.8-54.3,23-166.7,75.2-185.8
				c52.1-19,124.4-34.9,144.1-53.4C496.5,466.8,520.5,423.2,527.5,421.7"/>
		</defs>
		<clipPath id="SVGID_17_">
			<use xlink:href="#SVGID_16_"  style="overflow:visible;"/>
		</clipPath>
		<g class="st7">
			<g>
				<defs>
					<rect id="SVGID_18_" x="244.3" y="317" width="800.8" height="602.7"/>
				</defs>
				<clipPath id="SVGID_19_">
					<use xlink:href="#SVGID_18_"  style="overflow:visible;"/>
				</clipPath>
				<g class="st8">
					<defs>
						<rect id="SVGID_20_" x="244.3" y="317" width="800.8" height="602.7"/>
					</defs>
					<clipPath id="SVGID_21_">
						<use xlink:href="#SVGID_20_"  style="overflow:visible;"/>
					</clipPath>
					<g class="st9">
						<defs>
							<rect id="SVGID_22_" x="244.3" y="317" width="800.8" height="602.7"/>
						</defs>
						<clipPath id="SVGID_23_">
							<use xlink:href="#SVGID_22_"  style="overflow:visible;"/>
						</clipPath>
						<g class="st10">
							<defs>
								<rect id="SVGID_24_" x="244.3" y="317" width="800.8" height="602.7"/>
							</defs>
							<clipPath id="SVGID_25_">
								<use xlink:href="#SVGID_24_"  style="overflow:visible;"/>
							</clipPath>
							<g class="st11">
								<defs>
									<rect id="SVGID_26_" x="244.3" y="317" width="800.8" height="602.7"/>
								</defs>
								<clipPath id="SVGID_27_">
									<use xlink:href="#SVGID_26_"  style="overflow:visible;"/>
								</clipPath>
								
									<linearGradient id="SVGID_28_" gradientUnits="userSpaceOnUse" x1="0" y1="0" x2="1" y2="0" gradientTransform="matrix(0 -1048.4552 -1048.4552 0 642.1193 975.5146)">
									<stop  offset="0" style="stop-color:#802B3B"/>
									<stop  offset="8.104218e-02" style="stop-color:#913143"/>
									<stop  offset="0.1877" style="stop-color:#9F354A"/>
									<stop  offset="0.3174" style="stop-color:#A7384E"/>
									<stop  offset="0.5327" style="stop-color:#AA394F"/>
									<stop  offset="0.966" style="stop-color:#AA394F"/>
									<stop  offset="1" style="stop-color:#AA394F"/>
								</linearGradient>
								<rect x="244.3" y="317" class="st12" width="800.8" height="602.7"/>
							</g>
						</g>
					</g>
				</g>
			</g>
		</g>
	</g>
	<g class="st0">
		<defs>
			<path id="SVGID_29_" d="M839.6,1039c0,0-86.3-26.4-142.7-56.9c-56.4-30.6-115.5-60.1-124.4-60.9c-8.9-0.8-102.9-32.8-147.2-19.9
				l-0.4,4.5c0,0,76.2-8.1,146.8,25.6c70.5,33.7,204.2,120.9,268.4,117.1C904.2,1044.7,839.6,1039,839.6,1039"/>
		</defs>
		<clipPath id="SVGID_30_">
			<use xlink:href="#SVGID_29_"  style="overflow:visible;"/>
		</clipPath>
		<g class="st13">
			<g>
				<defs>
					<rect id="SVGID_31_" x="428.3" y="799.9" width="479.3" height="120.3"/>
				</defs>
				<clipPath id="SVGID_32_">
					<use xlink:href="#SVGID_31_"  style="overflow:visible;"/>
				</clipPath>
				<g class="st14">
					<defs>
						<rect id="SVGID_33_" x="428.3" y="799.9" width="479.3" height="120.3"/>
					</defs>
					<clipPath id="SVGID_34_">
						<use xlink:href="#SVGID_33_"  style="overflow:visible;"/>
					</clipPath>
					<g class="st15">
						<defs>
							<rect id="SVGID_35_" x="428.3" y="799.9" width="479.3" height="120.3"/>
						</defs>
						<clipPath id="SVGID_36_">
							<use xlink:href="#SVGID_35_"  style="overflow:visible;"/>
						</clipPath>
						<g class="st16">
							<defs>
								<rect id="SVGID_37_" x="428.3" y="799.9" width="479.3" height="120.3"/>
							</defs>
							<clipPath id="SVGID_38_">
								<use xlink:href="#SVGID_37_"  style="overflow:visible;"/>
							</clipPath>
							<g class="st17">
								<defs>
									<rect id="SVGID_39_" x="428.3" y="799.9" width="479.3" height="120.3"/>
								</defs>
								<clipPath id="SVGID_40_">
									<use xlink:href="#SVGID_39_"  style="overflow:visible;"/>
								</clipPath>
								
									<linearGradient id="SVGID_41_" gradientUnits="userSpaceOnUse" x1="0" y1="0" x2="1" y2="0" gradientTransform="matrix(0 -1048.4791 -1048.4792 0 650.0925 976.0391)">
									<stop  offset="0" style="stop-color:#802B3B"/>
									<stop  offset="8.104218e-02" style="stop-color:#913143"/>
									<stop  offset="0.1877" style="stop-color:#9F354A"/>
									<stop  offset="0.3174" style="stop-color:#A7384E"/>
									<stop  offset="0.5327" style="stop-color:#AA394F"/>
									<stop  offset="0.966" style="stop-color:#AA394F"/>
									<stop  offset="1" style="stop-color:#AA394F"/>
								</linearGradient>
								<rect x="428.3" y="799.9" class="st18" width="479.3" height="120.3"/>
							</g>
						</g>
					</g>
				</g>
			</g>
		</g>
	</g>
	<g class="st0">
		<defs>
			<path id="SVGID_42_" d="M829.5,866.3c0,0-75.2-9.5-105.6-17.8l-4.9,7.9l113.5,22.2C832.5,878.6,827.1,866.1,829.5,866.3"/>
		</defs>
		<clipPath id="SVGID_43_">
			<use xlink:href="#SVGID_42_"  style="overflow:visible;"/>
		</clipPath>
		<g class="st19">
			<g>
				<defs>
					<rect id="SVGID_44_" x="716.3" y="757.8" width="113.5" height="30.1"/>
				</defs>
				<clipPath id="SVGID_45_">
					<use xlink:href="#SVGID_44_"  style="overflow:visible;"/>
				</clipPath>
				<g class="st20">
					<defs>
						<rect id="SVGID_46_" x="716.7" y="757.8" width="113.1" height="30.1"/>
					</defs>
					<clipPath id="SVGID_47_">
						<use xlink:href="#SVGID_46_"  style="overflow:visible;"/>
					</clipPath>
					<g class="st21">
						<defs>
							<rect id="SVGID_48_" x="717.2" y="757.8" width="112.6" height="30.1"/>
						</defs>
						<clipPath id="SVGID_49_">
							<use xlink:href="#SVGID_48_"  style="overflow:visible;"/>
						</clipPath>
						<g class="st22">
							<defs>
								<rect id="SVGID_50_" x="717.6" y="757.8" width="112.2" height="30.1"/>
							</defs>
							<clipPath id="SVGID_51_">
								<use xlink:href="#SVGID_50_"  style="overflow:visible;"/>
							</clipPath>
							<g class="st23">
								<defs>
									<rect id="SVGID_52_" x="718" y="757.8" width="111.8" height="30.1"/>
								</defs>
								<clipPath id="SVGID_53_">
									<use xlink:href="#SVGID_52_"  style="overflow:visible;"/>
								</clipPath>
								
									<linearGradient id="SVGID_54_" gradientUnits="userSpaceOnUse" x1="0" y1="0" x2="1" y2="0" gradientTransform="matrix(0 -1048.3544 -1048.3544 0 773.0446 973.9572)">
									<stop  offset="0" style="stop-color:#802B3B"/>
									<stop  offset="8.104218e-02" style="stop-color:#913143"/>
									<stop  offset="0.1877" style="stop-color:#9F354A"/>
									<stop  offset="0.3174" style="stop-color:#A7384E"/>
									<stop  offset="0.5327" style="stop-color:#AA394F"/>
									<stop  offset="0.966" style="stop-color:#AA394F"/>
									<stop  offset="1" style="stop-color:#AA394F"/>
								</linearGradient>
								<rect x="718" y="757.8" class="st24" width="111.8" height="30.1"/>
							</g>
						</g>
					</g>
				</g>
			</g>
		</g>
	</g>
	<g class="st0">
		<defs>
			<path id="SVGID_55_" d="M411.2,1050.6c0,0,100.8,4.2,185.3-14.8c84.5-18.9,113.2-37.2,113.2-37.2l13.8,6.1
				c0,0-62.9,32.4-134.1,43.6c-71.1,11.2-187.9,16.3-187.9,16.3L411.2,1050.6z"/>
		</defs>
		<clipPath id="SVGID_56_">
			<use xlink:href="#SVGID_55_"  style="overflow:visible;"/>
		</clipPath>
		<g class="st25">
			<g>
				<defs>
					<rect id="SVGID_57_" x="403.3" y="913.2" width="322" height="10.1"/>
				</defs>
				<clipPath id="SVGID_58_">
					<use xlink:href="#SVGID_57_"  style="overflow:visible;"/>
				</clipPath>
				<g class="st26">
					<defs>
						<rect id="SVGID_59_" x="403.5" y="913.2" width="321.7" height="10.1"/>
					</defs>
					<clipPath id="SVGID_60_">
						<use xlink:href="#SVGID_59_"  style="overflow:visible;"/>
					</clipPath>
					<g class="st27">
						<defs>
							<rect id="SVGID_61_" x="403.8" y="913.2" width="321.5" height="10.1"/>
						</defs>
						<clipPath id="SVGID_62_">
							<use xlink:href="#SVGID_61_"  style="overflow:visible;"/>
						</clipPath>
						<g class="st28">
							<defs>
								<rect id="SVGID_63_" x="404.1" y="913.2" width="321.2" height="10.1"/>
							</defs>
							<clipPath id="SVGID_64_">
								<use xlink:href="#SVGID_63_"  style="overflow:visible;"/>
							</clipPath>
							<g class="st29">
								<defs>
									<rect id="SVGID_65_" x="404.4" y="913.2" width="320.9" height="10.1"/>
								</defs>
								<clipPath id="SVGID_66_">
									<use xlink:href="#SVGID_65_"  style="overflow:visible;"/>
								</clipPath>
								
									<linearGradient id="SVGID_67_" gradientUnits="userSpaceOnUse" x1="0" y1="0" x2="1" y2="0" gradientTransform="matrix(0 -1048.4464 -1048.4464 0 564.2704 979.0752)">
									<stop  offset="0" style="stop-color:#802B3B"/>
									<stop  offset="8.104218e-02" style="stop-color:#913143"/>
									<stop  offset="0.1877" style="stop-color:#9F354A"/>
									<stop  offset="0.3174" style="stop-color:#A7384E"/>
									<stop  offset="0.5327" style="stop-color:#AA394F"/>
									<stop  offset="0.966" style="stop-color:#AA394F"/>
									<stop  offset="1" style="stop-color:#AA394F"/>
								</linearGradient>
								<rect x="404.4" y="913.2" class="st30" width="320.9" height="10.1"/>
							</g>
						</g>
					</g>
				</g>
			</g>
		</g>
	</g>
</g>
</svg>
