<svg id="Layer_1" data-name="Layer 1" xmlns="http://www.w3.org/2000/svg" xmlns:xlink="http://www.w3.org/1999/xlink" viewBox="0 0 729.59 913.53"><defs><style>.cls-1{fill:none;}.cls-2{clip-path:url(#clip-path);}.cls-3{clip-path:url(#clip-path-2);}.cls-4{clip-path:url(#clip-path-3);}.cls-5{clip-path:url(#clip-path-4);}.cls-6{clip-path:url(#clip-path-5);}.cls-7{clip-path:url(#clip-path-6);}.cls-8{clip-path:url(#clip-path-7);}.cls-9{fill:url(#linear-gradient);}.cls-10{clip-path:url(#clip-path-8);}.cls-11{clip-path:url(#clip-path-9);}.cls-12{clip-path:url(#clip-path-11);}.cls-13{clip-path:url(#clip-path-12);}.cls-14{clip-path:url(#clip-path-13);}.cls-15{fill:url(#linear-gradient-2);}.cls-16{clip-path:url(#clip-path-14);}.cls-17{clip-path:url(#clip-path-15);}.cls-18{clip-path:url(#clip-path-16);}.cls-19{clip-path:url(#clip-path-17);}.cls-20{clip-path:url(#clip-path-18);}.cls-21{clip-path:url(#clip-path-19);}.cls-22{fill:url(#linear-gradient-3);}</style><clipPath id="clip-path" transform="translate(-276.85 37.55)"><rect class="cls-1" x="279.02" y="58.57" width="722.84" height="914.54"/></clipPath><clipPath id="clip-path-2" transform="translate(-276.85 37.55)"><path class="cls-1" d="M618.65,92.62s77.89-2.69,119,44,24,106.22,13.78,145.86c0,0-26.29,71.69-26.71,76s-3.13-58.22-11.16-76.33,6-68.71-24-88.9-73.56-12.38-73.56-12.38-62.07-18.89-92.3,14.52-13.81,59.87-18.48,85.94-7.77,59.37-7.77,59.37-10.89-73.58-12.53-101.89-21-142.58,133.82-146.14"/></clipPath><clipPath id="clip-path-3" transform="translate(-276.85 37.55)"><rect class="cls-1" x="460.9" y="-6.88" width="314.88" height="272.8"/></clipPath><clipPath id="clip-path-4" transform="translate(-276.85 37.55)"><rect class="cls-1" x="461.11" y="-6.88" width="314.67" height="272.8"/></clipPath><clipPath id="clip-path-5" transform="translate(-276.85 37.55)"><rect class="cls-1" x="461.28" y="-6.88" width="314.49" height="272.8"/></clipPath><clipPath id="clip-path-6" transform="translate(-276.85 37.55)"><rect class="cls-1" x="461.46" y="-6.88" width="314.31" height="272.8"/></clipPath><clipPath id="clip-path-7" transform="translate(-276.85 37.55)"><rect class="cls-1" x="461.64" y="-6.88" width="314.13" height="272.8"/></clipPath><linearGradient id="linear-gradient" x2="1" gradientTransform="matrix(0, -912.36, -912.36, 0, 343.73, 958.96)" gradientUnits="userSpaceOnUse"><stop offset="0" stop-color="#bf2b2b"/><stop offset="0.05" stop-color="#d22f2f"/><stop offset="0.12" stop-color="#e63333"/><stop offset="0.2" stop-color="#f43737"/><stop offset="0.3" stop-color="#fc3838"/><stop offset="0.46" stop-color="#ff3939"/><stop offset="0.97" stop-color="#ff3939"/><stop offset="1" stop-color="#ff3939"/></linearGradient><clipPath id="clip-path-8" transform="translate(-276.85 37.55)"><path class="cls-1" d="M525.77,484.82s70.43,90.79,92.88,96.4c12.92,3.22,104-113.69,104-113.69s13.32.83,19.37,10.92c0,0,147.44,33.22,171.66,70.56s58.58,193.47,76.75,316.11,9.13,152.61,9.13,152.61H279s30.29-332.8,32.31-359.05,10.09-88.7,86.79-114.93,110-35.22,127.66-58.93"/></clipPath><clipPath id="clip-path-9" transform="translate(-276.85 37.55)"><rect class="cls-1" x="276.82" y="370.39" width="729.62" height="505.59"/></clipPath><clipPath id="clip-path-11" transform="translate(-276.85 37.55)"><rect class="cls-1" x="276.83" y="370.39" width="729.62" height="505.59"/></clipPath><clipPath id="clip-path-12" transform="translate(-276.85 37.55)"><rect class="cls-1" x="276.84" y="370.39" width="729.6" height="505.59"/></clipPath><clipPath id="clip-path-13" transform="translate(-276.85 37.55)"><rect class="cls-1" x="276.85" y="370.39" width="729.59" height="505.59"/></clipPath><linearGradient id="linear-gradient-2" gradientTransform="matrix(0, -911.57, -911.57, 0, 361.38, 958.15)" xlink:href="#linear-gradient"/><clipPath id="clip-path-14" transform="translate(-276.85 37.55)"><path class="cls-1" d="M527.64,115.54s26.7-16.69,55.18-26.93,43.38-30,43.38-30,1.93,12.7,39,30.8,61.71,29.07,69.72,45.09S648,144.23,648,144.23s-123.26-29.82-120.37-28.7"/></clipPath><clipPath id="clip-path-15" transform="translate(-276.85 37.55)"><rect class="cls-1" x="522.5" y="-37.55" width="218.19" height="91.89"/></clipPath><clipPath id="clip-path-16" transform="translate(-276.85 37.55)"><rect class="cls-1" x="522.5" y="-37.55" width="218.19" height="91.83"/></clipPath><clipPath id="clip-path-17" transform="translate(-276.85 37.55)"><rect class="cls-1" x="522.5" y="-37.55" width="218.19" height="91.76"/></clipPath><clipPath id="clip-path-18" transform="translate(-276.85 37.55)"><rect class="cls-1" x="522.5" y="-37.55" width="218.19" height="91.69"/></clipPath><clipPath id="clip-path-19" transform="translate(-276.85 37.55)"><rect class="cls-1" x="522.5" y="-37.55" width="218.19" height="91.63"/></clipPath><linearGradient id="linear-gradient-3" gradientTransform="matrix(0, -912.37, -912.37, 0, 352.39, 959.65)" xlink:href="#linear-gradient"/></defs><title>Matt</title><g class="cls-2"><g class="cls-3"><g class="cls-4"><g class="cls-5"><g class="cls-6"><g class="cls-7"><g class="cls-8"><rect class="cls-9" x="184.79" y="30.67" width="314.13" height="272.8"/></g></g></g></g></g></g><g class="cls-10"><g class="cls-11"><g class="cls-11"><g class="cls-12"><g class="cls-13"><g class="cls-14"><rect class="cls-15" y="407.94" width="729.59" height="505.59"/></g></g></g></g></g></g><g class="cls-16"><g class="cls-17"><g class="cls-18"><g class="cls-19"><g class="cls-20"><g class="cls-21"><rect class="cls-22" x="245.65" width="218.19" height="91.63"/></g></g></g></g></g></g></g></svg>