<svg id="Layer_1" data-name="Layer 1" xmlns="http://www.w3.org/2000/svg" xmlns:xlink="http://www.w3.org/1999/xlink" viewBox="0 0 803.23 1007.93"><defs><style>.cls-1{fill:none;}.cls-2{clip-path:url(#clip-path);}.cls-3{clip-path:url(#clip-path-2);}.cls-4{clip-path:url(#clip-path-3);}.cls-5{clip-path:url(#clip-path-4);}.cls-6{clip-path:url(#clip-path-5);}.cls-7{clip-path:url(#clip-path-6);}.cls-8{clip-path:url(#clip-path-7);}.cls-9{fill:url(#linear-gradient);}.cls-10{clip-path:url(#clip-path-8);}.cls-11{clip-path:url(#clip-path-9);}.cls-12{clip-path:url(#clip-path-10);}.cls-13{clip-path:url(#clip-path-11);}.cls-14{clip-path:url(#clip-path-12);}.cls-15{clip-path:url(#clip-path-13);}.cls-16{fill:url(#linear-gradient-2);}.cls-17{clip-path:url(#clip-path-14);}.cls-18{clip-path:url(#clip-path-15);}.cls-19{clip-path:url(#clip-path-16);}.cls-20{clip-path:url(#clip-path-17);}.cls-21{clip-path:url(#clip-path-18);}.cls-22{clip-path:url(#clip-path-19);}.cls-23{fill:url(#linear-gradient-3);}.cls-24{clip-path:url(#clip-path-20);}.cls-25{clip-path:url(#clip-path-21);}.cls-26{clip-path:url(#clip-path-22);}.cls-27{clip-path:url(#clip-path-23);}.cls-28{clip-path:url(#clip-path-24);}.cls-29{clip-path:url(#clip-path-25);}.cls-30{fill:url(#linear-gradient-4);}.cls-31{clip-path:url(#clip-path-26);}.cls-32{clip-path:url(#clip-path-27);}.cls-33{fill:url(#linear-gradient-5);}.cls-34{clip-path:url(#clip-path-32);}.cls-35{clip-path:url(#clip-path-33);}.cls-36{clip-path:url(#clip-path-34);}.cls-37{clip-path:url(#clip-path-35);}.cls-38{clip-path:url(#clip-path-36);}.cls-39{clip-path:url(#clip-path-37);}.cls-40{fill:url(#linear-gradient-6);}</style><clipPath id="clip-path" transform="translate(-244.28 78.62)"><rect class="cls-1" x="241.17" y="10.64" width="796.14" height="1009.25"/></clipPath><clipPath id="clip-path-2" transform="translate(-244.28 78.62)"><path class="cls-1" d="M616.63,34s84.4,8.6,129.64,60,26.47,117,15.19,160.66c0,0-29,78.95-29.43,83.68s-3.44-64.12-12.3-84.07,6.57-75.69-26.45-97.92-81-13.65-81-13.65-68.37-20.8-101.66,16-15.22,66-20.35,94.66-8.57,65.39-8.57,65.39-12-81-13.8-112.23S438.57,62.37,616.63,34"/></clipPath><clipPath id="clip-path-3" transform="translate(-244.28 78.62)"><rect class="cls-1" x="435.55" y="-62.9" width="352.92" height="309.07"/></clipPath><clipPath id="clip-path-4" transform="translate(-244.28 78.62)"><rect class="cls-1" x="435.9" y="-62.9" width="352.58" height="309.07"/></clipPath><clipPath id="clip-path-5" transform="translate(-244.28 78.62)"><rect class="cls-1" x="436.22" y="-62.9" width="352.26" height="309.07"/></clipPath><clipPath id="clip-path-6" transform="translate(-244.28 78.62)"><rect class="cls-1" x="436.55" y="-62.9" width="351.93" height="309.07"/></clipPath><clipPath id="clip-path-7" transform="translate(-244.28 78.62)"><rect class="cls-1" x="436.87" y="-62.9" width="351.61" height="309.07"/></clipPath><linearGradient id="linear-gradient" x2="1" gradientTransform="matrix(0, -1182.23, -1182.23, 0, 372.88, 1060.98)" gradientUnits="userSpaceOnUse"><stop offset="0" stop-color="#ba6b0e"/><stop offset="0.04" stop-color="#ba6b0e"/><stop offset="0.08" stop-color="#cb740f"/><stop offset="0.14" stop-color="#df8010"/><stop offset="0.21" stop-color="#ed8811"/><stop offset="0.29" stop-color="#f58d12"/><stop offset="0.42" stop-color="#f88e12"/><stop offset="1" stop-color="#f88e12"/></linearGradient><clipPath id="clip-path-8" transform="translate(-244.28 78.62)"><path class="cls-1" d="M513,477.51s86,147,110.72,153.16c14.24,3.56,106.17-172.2,106.17-172.2s14.67.91,21.33,12c0,0,162.4,36.6,189.07,77.72s64.52,213.14,84.54,348.18,10,168.12,10,168.12H241.17S274.52,697.93,276.74,669s11.11-97.71,95.59-126.61S493.49,503.63,513,477.51"/></clipPath><clipPath id="clip-path-9" transform="translate(-244.28 78.62)"><rect class="cls-1" x="243.88" y="367.88" width="803.63" height="561.43"/></clipPath><clipPath id="clip-path-10" transform="translate(-244.28 78.62)"><rect class="cls-1" x="243.96" y="367.88" width="803.55" height="561.43"/></clipPath><clipPath id="clip-path-11" transform="translate(-244.28 78.62)"><rect class="cls-1" x="244.07" y="367.88" width="803.44" height="561.43"/></clipPath><clipPath id="clip-path-12" transform="translate(-244.28 78.62)"><rect class="cls-1" x="244.17" y="367.88" width="803.33" height="561.43"/></clipPath><clipPath id="clip-path-13" transform="translate(-244.28 78.62)"><rect class="cls-1" x="244.28" y="367.88" width="803.23" height="561.43"/></clipPath><linearGradient id="linear-gradient-2" gradientTransform="matrix(0, -1181.34, -1181.34, 0, 397.69, 1066.78)" xlink:href="#linear-gradient"/><clipPath id="clip-path-14" transform="translate(-244.28 78.62)"><path class="cls-1" d="M529.06,144.6s38.91-18.34,83.36,1.68,65,111.15,115.06,116.15c0,0,47.24-117.28-65-150.07s-108.52-19-133.39,32.24"/></clipPath><clipPath id="clip-path-15" transform="translate(-244.28 78.62)"><rect class="cls-1" x="525.39" y="-16.79" width="245.67" height="182.85"/></clipPath><clipPath id="clip-path-16" transform="translate(-244.28 78.62)"><rect class="cls-1" x="525.62" y="-16.79" width="245.43" height="182.81"/></clipPath><clipPath id="clip-path-17" transform="translate(-244.28 78.62)"><rect class="cls-1" x="525.87" y="-16.79" width="245.19" height="182.8"/></clipPath><clipPath id="clip-path-18" transform="translate(-244.28 78.62)"><rect class="cls-1" x="526.13" y="-16.79" width="244.93" height="182.78"/></clipPath><clipPath id="clip-path-19" transform="translate(-244.28 78.62)"><rect class="cls-1" x="526.38" y="-16.79" width="244.68" height="182.76"/></clipPath><linearGradient id="linear-gradient-3" gradientTransform="matrix(0, -1182.25, -1182.25, 0, 385.25, 1061.48)" xlink:href="#linear-gradient"/><clipPath id="clip-path-20" transform="translate(-244.28 78.62)"><path class="cls-1" d="M616.63,34S588,28.44,570.2,26.76a30.63,30.63,0,0,1-24.45-16.12s-25.57,37.79,2.77,60,90-2.22,90-2.22Z"/></clipPath><clipPath id="clip-path-21" transform="translate(-244.28 78.62)"><rect class="cls-1" x="525.76" y="-78.62" width="118.38" height="82.24"/></clipPath><clipPath id="clip-path-22" transform="translate(-244.28 78.62)"><rect class="cls-1" x="525.76" y="-78.62" width="118.38" height="82.03"/></clipPath><clipPath id="clip-path-23" transform="translate(-244.28 78.62)"><rect class="cls-1" x="525.76" y="-78.62" width="118.38" height="81.83"/></clipPath><clipPath id="clip-path-24" transform="translate(-244.28 78.62)"><rect class="cls-1" x="525.76" y="-78.62" width="118.38" height="81.62"/></clipPath><clipPath id="clip-path-25" transform="translate(-244.28 78.62)"><rect class="cls-1" x="525.76" y="-78.62" width="118.38" height="81.42"/></clipPath><linearGradient id="linear-gradient-4" gradientTransform="matrix(0, -1182.28, -1182.28, 0, 348.16, 1068.6)" xlink:href="#linear-gradient"/><clipPath id="clip-path-26" transform="translate(-244.28 78.62)"><path class="cls-1" d="M714,265.22c-7.94-.42-23-3.23-44.19-2.8s-28,2.15-45.17,7.5-20.73,4.52-20.73,4.52v12.65s9.57-2.36,14.09,14.38,19.26,42.9,58.5,40.1,39.45-34.1,41.81-47.82,7.6-13.09,7.6-13.09l1.77-13.95A116.82,116.82,0,0,0,714,265.22m-3.23,33c-1.27,25.32-17.58,41.6-45.46,38.18s-34.11-21-37.12-33.47-2.35-19.72,5.8-26.38,27.45-7.07,27.45-7.07c38.26-1.73,50.63,3.42,49.33,28.74"/></clipPath><clipPath id="clip-path-27" transform="translate(-244.28 78.62)"><rect class="cls-1" x="607.63" y="169.11" width="123.78" height="82.37"/></clipPath><linearGradient id="linear-gradient-5" gradientTransform="matrix(0, -1182.22, -1182.22, 0, 425.24, 1064.94)" xlink:href="#linear-gradient"/><clipPath id="clip-path-32" transform="translate(-244.28 78.62)"><path class="cls-1" d="M484.49,266.71l1.71,13.95s5.16-.65,7.52,13.09,2.35,45,41.6,47.82,55.39-23.38,59.9-40.1,15.07-14.38,15.07-14.38V274.44s-4.55.85-21.73-4.52-24-7.07-45.27-7.5-36.68,2.37-44.62,2.8a135.92,135.92,0,0,0-14.17,1.49m66.27,2.8s19.32.41,27.46,7.07S587,290.52,584,303s-9.23,30-37.12,33.47-44.18-12.87-45.48-38.18,11.09-30.46,49.34-28.74"/></clipPath><clipPath id="clip-path-33" transform="translate(-244.28 78.62)"><rect class="cls-1" x="482.3" y="169.11" width="125.81" height="82.37"/></clipPath><clipPath id="clip-path-34" transform="translate(-244.28 78.62)"><rect class="cls-1" x="482.86" y="169.11" width="125.24" height="82.37"/></clipPath><clipPath id="clip-path-35" transform="translate(-244.28 78.62)"><rect class="cls-1" x="483.42" y="169.11" width="124.69" height="82.37"/></clipPath><clipPath id="clip-path-36" transform="translate(-244.28 78.62)"><rect class="cls-1" x="483.98" y="169.11" width="124.13" height="82.37"/></clipPath><clipPath id="clip-path-37" transform="translate(-244.28 78.62)"><rect class="cls-1" x="484.52" y="169.11" width="123.59" height="82.37"/></clipPath><linearGradient id="linear-gradient-6" gradientTransform="matrix(0, -1182.22, -1182.22, 0, 300.92, 1064.94)" xlink:href="#linear-gradient"/></defs><title>Parker</title><g class="cls-2"><g class="cls-3"><g class="cls-4"><g class="cls-5"><g class="cls-6"><g class="cls-7"><g class="cls-8"><rect class="cls-9" x="192.59" y="15.72" width="351.61" height="309.07"/></g></g></g></g></g></g><g class="cls-10"><g class="cls-11"><g class="cls-12"><g class="cls-13"><g class="cls-14"><g class="cls-15"><rect class="cls-16" y="446.5" width="803.23" height="561.43"/></g></g></g></g></g></g><g class="cls-17"><g class="cls-18"><g class="cls-19"><g class="cls-20"><g class="cls-21"><g class="cls-22"><rect class="cls-23" x="282.1" y="61.83" width="244.68" height="182.76"/></g></g></g></g></g></g><g class="cls-24"><g class="cls-25"><g class="cls-26"><g class="cls-27"><g class="cls-28"><g class="cls-29"><rect class="cls-30" x="281.48" width="118.38" height="81.42"/></g></g></g></g></g></g><g class="cls-31"><g class="cls-32"><g class="cls-32"><g class="cls-32"><g class="cls-32"><g class="cls-32"><rect class="cls-33" x="363.36" y="247.73" width="123.78" height="82.37"/></g></g></g></g></g></g><g class="cls-34"><g class="cls-35"><g class="cls-36"><g class="cls-37"><g class="cls-38"><g class="cls-39"><rect class="cls-40" x="240.24" y="247.73" width="123.59" height="82.37"/></g></g></g></g></g></g></g></svg>