<svg xmlns="http://www.w3.org/2000/svg" xmlns:xlink="http://www.w3.org/1999/xlink" viewBox="0 0 1154.4 517.39"><defs><style>.cls-1{fill:none;}.cls-2{isolation:isolate;}.cls-3{mix-blend-mode:multiply;}.cls-4{clip-path:url(#clip-path);}.cls-5{clip-path:url(#clip-path-2);}.cls-6{clip-path:url(#clip-path-3);}.cls-7{fill:url(#linear-gradient);}.cls-8{clip-path:url(#clip-path-4);}.cls-9{clip-path:url(#clip-path-5);}.cls-10{fill:url(#linear-gradient-2);}.cls-11{font-size:42px;font-family:Lato;}.cls-11,.cls-14{fill:#3dccb4;}.cls-12{letter-spacing:-1px;}.cls-13{letter-spacing:-2px;}</style><clipPath id="clip-path" transform="translate(-12.29 53.06)"><rect class="cls-1" x="11.38" y="4.55" width="394.37" height="506.47"/></clipPath><clipPath id="clip-path-2" transform="translate(-12.29 53.06)"><path class="cls-1" d="M153.27,229s10.28,41.61,49.86,38.09,47.92-45.63,47.92-45.63,6.61,0.35,9.62,4.76c0,0,73.22,14.5,85.24,30.78s31.56,42.31,40.59,95.82,19.24,192.37,19.24,192.37L11.38,542s26.74-214.36,35.4-235.47c4.37-10.66,5-39.54,43.1-51s54.62-16.2,63.39-26.54"/></clipPath><clipPath id="clip-path-3" transform="translate(-12.29 53.06)"><rect class="cls-1" x="12.29" y="174.56" width="393.39" height="289.77"/></clipPath><linearGradient id="linear-gradient" y1="-304.19" x2="1" y2="-304.19" gradientTransform="matrix(0, -602.44, -602.44, 0, -183060.43, 533.48)" gradientUnits="userSpaceOnUse"><stop offset="0" stop-color="#2e9b88"/><stop offset="0.22" stop-color="#37b8a2"/><stop offset="0.41" stop-color="#3dceb5"/><stop offset="0.97" stop-color="#3dceb5"/><stop offset="1" stop-color="#3dceb5"/></linearGradient><clipPath id="clip-path-4" transform="translate(-12.29 53.06)"><path class="cls-1" d="M274.31,111.66c6.16,61.5-22.07,96.37-25,98.11l-2.91,1.74s-1.15,38.9,50.51,40.64,54-45.86,40-59.21c0,0-7,14.32-19.35,10.83,0,0,17.61-5,11.81-20.12,0,0-7.36,9.67-16.45,2.33S354.13,16.78,215.67,4.85c0,0-107.19-10.83-113.39,99.07,0,0-3.29,16.17-17.51,12.38s-7.25-16-7.25-16-38.9,25-5.23,53.41c0,0-13.35,5.12-19.15-6.86,0,0-2.72,42.57,28.62,42.18,0,0-12,8.52-22.83,3.87,0,0,39.48,66.57,102.95,20.51,0,0-14.71-26.7-13.16-53.79s43.35-47.6,48-84c0,0,45.28,0,63.47,32.51,0,0-6.19-24.78-23.61-34.45,0,0,34.82,8.89,37.73,37.92"/></clipPath><clipPath id="clip-path-5" transform="translate(-12.29 53.06)"><rect class="cls-1" x="38.49" y="-53.06" width="315.58" height="265.04"/></clipPath><linearGradient id="linear-gradient-2" y1="-304.19" y2="-304.19" gradientTransform="matrix(0, -587.66, -587.66, 0, -178576.95, 525.55)" xlink:href="#linear-gradient"/></defs><title>Barbara_resp</title><g class="cls-2"><g id="Layers"><g id="Green_Barbara" data-name="Green Barbara"><g class="cls-3"><g class="cls-4"><g class="cls-5"><g class="cls-6"><rect class="cls-7" y="227.62" width="393.39" height="289.77"/></g></g><g class="cls-8"><g class="cls-9"><rect class="cls-10" x="26.2" width="315.58" height="265.04"/></g></g></g></g><text class="cls-11" transform="translate(354.53 153.02)">I applied for Staff Analyst, but I do<tspan class="cls-12" x="616.71" y="0">n</tspan><tspan x="638.55" y="0">’t know </tspan><tspan x="-2.21" y="50.4">much about the Count</tspan><tspan class="cls-13" x="405.56" y="50.4">y</tspan><tspan x="424.3" y="50.4">. What positions do </tspan><tspan x="62.43" y="100.8">Staff Analysts typically promote to?</tspan></text><circle class="cls-14" cx="663.68" cy="326.6" r="18"/><circle class="cls-14" cx="664.85" cy="388.59" r="18"/><circle class="cls-14" cx="663.68" cy="447.85" r="18"/></g></g></g></svg>