<svg xmlns="http://www.w3.org/2000/svg" xmlns:xlink="http://www.w3.org/1999/xlink" width="1130.4" height="515.26" viewBox="0 0 1130.4 515.26"><defs><style>.cls-1{fill:none;}.cls-2{isolation:isolate;}.cls-12,.cls-3{fill:#28aae1;}.cls-4{mix-blend-mode:multiply;}.cls-5{clip-path:url(#clip-path);}.cls-6{clip-path:url(#clip-path-2);}.cls-7{clip-path:url(#clip-path-3);}.cls-8{fill:url(#linear-gradient);}.cls-9{clip-path:url(#clip-path-4);}.cls-10{clip-path:url(#clip-path-5);}.cls-11{fill:url(#linear-gradient-2);}.cls-12{font-size:42px;font-family:Lato;}</style><clipPath id="clip-path" transform="translate(-16.83 51.35)"><rect class="cls-1" x="17.91" y="-0.71" width="392.88" height="516.3"/></clipPath><clipPath id="clip-path-2" transform="translate(-16.83 51.35)"><path class="cls-1" d="M152,250.2s38.28,49.34,50.48,52.39c7,1.75,56.55-61.79,56.55-61.79s7.24,0.45,10.53,5.94c0,0,80.14,18.06,93.31,38.35s31.84,105.16,41.71,171.82,5,82.95,5,82.95H17.91S34.37,359,35.47,344.7,41,296.49,82.64,282.23s59.78-19.14,69.39-32"/></clipPath><clipPath id="clip-path-3" transform="translate(-16.83 51.35)"><rect class="cls-1" x="16.83" y="189.45" width="395.54" height="274.47"/></clipPath><linearGradient id="linear-gradient" y1="-304.19" x2="1" y2="-304.19" gradientTransform="matrix(0, -587.72, -587.72, 0, -178585.04, 562.8)" gradientUnits="userSpaceOnUse"><stop offset="0" stop-color="#0071bc"/><stop offset="0.04" stop-color="#0071bc"/><stop offset="0.07" stop-color="#097ec4"/><stop offset="0.13" stop-color="#1792d1"/><stop offset="0.2" stop-color="#21a0db"/><stop offset="0.28" stop-color="#27a8e0"/><stop offset="0.42" stop-color="#29abe2"/><stop offset="1" stop-color="#29abe2"/></linearGradient><clipPath id="clip-path-4" transform="translate(-16.83 51.35)"><path class="cls-1" d="M125,136.63s0-40.36,68.34-45.56c0,0,25.39-1.63,31.25-12.7,0,0-.33,32.22-35.47,39.38,0,0,54.34,2.93,67-18.55,0,0-2.93,24.41-14.65,34.82,0,0,17.9-.32,24.4-13.67,0,0,15.62,66.71-15,95,0,0,25.07-16.05,35-52.07S320.74,41.38,230.49,20.55c0,0,13.45-1.73,15.4-21.26,0,0-8.46,11.51-44,10.42S78.83,25.33,81.43,129.48s36.45,159.47-3.25,171.18c0,0,60.53-3.25,67.69-28.64s2.6-39.7,2.6-39.7S123.74,219.95,125,136.63"/></clipPath><clipPath id="clip-path-5" transform="translate(-16.83 51.35)"><rect class="cls-1" x="77.01" y="-51.35" width="241.76" height="301.17"/></clipPath><linearGradient id="linear-gradient-2" y1="-304.19" y2="-304.19" gradientTransform="matrix(0, -588.22, -588.22, 0, -178762.19, 563.93)" xlink:href="#linear-gradient"/></defs><title>Dylan</title><g class="cls-2"><g id="Layers"><g id="Blue_Dylan" data-name="Blue Dylan"><circle class="cls-3" cx="735.31" cy="313.88" r="18"/><circle class="cls-3" cx="736.48" cy="375.88" r="18"/><circle class="cls-3" cx="735.31" cy="435.13" r="18"/><g class="cls-4"><g class="cls-5"><g class="cls-6"><g class="cls-7"><rect class="cls-8" y="240.8" width="395.54" height="274.47"/></g></g><g class="cls-9"><g class="cls-10"><rect class="cls-11" x="60.18" width="241.76" height="301.17"/></g></g></g></g><text class="cls-12" x="-16.83" y="51.35"><tspan x="417.7" y="150.2">How ma</tspan><tspan x="568.86" y="150.2">n</tspan><tspan x="591.54" y="150.2">y positions do most people</tspan><tspan x="519.49" y="200.6">hold before th</tspan><tspan x="777.57" y="200.6">e</tspan><tspan x="799.03" y="200.6">y become </tspan><tspan x="474.63" y="251">Chief Electrician Supervisors?</tspan></text></g></g></g></svg>