<svg xmlns="http://www.w3.org/2000/svg" xmlns:xlink="http://www.w3.org/1999/xlink" width="1148.03" height="508.75" viewBox="0 0 1148.03 508.75"><defs><style>.cls-1{fill:none;}.cls-2{isolation:isolate;}.cls-3{mix-blend-mode:multiply;}.cls-4{clip-path:url(#clip-path);}.cls-5{clip-path:url(#clip-path-2);}.cls-6{clip-path:url(#clip-path-3);}.cls-7{fill:url(#linear-gradient);}.cls-8{clip-path:url(#clip-path-4);}.cls-9{clip-path:url(#clip-path-5);}.cls-10{fill:url(#linear-gradient-2);}.cls-11{clip-path:url(#clip-path-6);}.cls-12{clip-path:url(#clip-path-7);}.cls-13{fill:url(#linear-gradient-3);}.cls-14{clip-path:url(#clip-path-8);}.cls-15{clip-path:url(#clip-path-9);}.cls-16{fill:url(#linear-gradient-4);}.cls-17{clip-path:url(#clip-path-10);}.cls-18{clip-path:url(#clip-path-11);}.cls-19{fill:url(#linear-gradient-5);}.cls-20{font-size:42px;font-family:Lato;}.cls-20,.cls-22{fill:#aa394f;}.cls-21{letter-spacing:-1px;}</style><clipPath id="clip-path" transform="translate(-10.17 42.66)"><rect class="cls-1" x="10.66" y="0.3" width="405.2" height="509.63"/></clipPath><clipPath id="clip-path-2" transform="translate(-10.17 42.66)"><path class="cls-1" d="M202.54-1.49s43.66,4.45,67.05,31,13.69,60.51,7.86,83.09c0,0-15,40.84-15.22,43.28s-1.79-33.16-6.36-43.48,3.39-39.14-13.69-50.64-41.91-7.06-41.91-7.06S164.92,44,147.69,63s-7.86,34.11-10.52,49-4.43,33.81-4.43,33.81-6.21-41.91-7.13-58S110.46,13.21,202.54-1.49"/></clipPath><clipPath id="clip-path-3" transform="translate(-10.17 42.66)"><rect class="cls-1" x="111.93" y="-42.66" width="181.89" height="158.14"/></clipPath><linearGradient id="linear-gradient" y1="-304.19" x2="1" y2="-304.19" gradientTransform="matrix(0, -539.72, -539.72, 0, -163984.84, 538.38)" gradientUnits="userSpaceOnUse"><stop offset="0" stop-color="#802b3b"/><stop offset="0.08" stop-color="#913143"/><stop offset="0.19" stop-color="#9f354a"/><stop offset="0.32" stop-color="#a7384e"/><stop offset="0.53" stop-color="#aa394f"/><stop offset="0.97" stop-color="#aa394f"/><stop offset="1" stop-color="#aa394f"/></linearGradient><clipPath id="clip-path-4" transform="translate(-10.17 42.66)"><path class="cls-1" d="M155.39,207.71S152.25,223.59,161,236s31.37,32.58,38.27,30.69,52.16-42.7,55.07-53.76-0.6-13.24-.6-13.24,17.43,14.77,18.27,18.85,1.36,8.47,1.36,8.47,63.21,6.6,89,27.54,41.92,84.8,48.51,132.31S420.67,498.2,399.8,516.6s-55.95,17.5-55.95,17.5-29.91,3.34-32.27-4.3,5.8-22.28-.59-39.53-12.48-43.76-6.61-53.69l17-3.93s-4.81-20.81-20.88-20.49S280.1,432.43,261,431.87s-56.9-11.56-56.9-11.56l0.11-111.66L201,297.23,209.24,282,231,267.4l-6.65-8-21.18,15.27-8-.15-18.58-12.24-8.92,9.63,19.24,11.7-3.37,9.56-8.87,15.19L163.82,409.67s-26.61-5.61-43.8.18-28.84,24.4-27.5,36.24c0,0-1.48,9.1,11.58,7.9,0,0-5.26,81.52-5.44,83.37s-20.93,6-41.53,2.21-40.87-31-44.78-54.82-0.41-93.19,4.09-121.14S28.29,277.77,55.13,268s64-18,74.17-27.51,22.47-32,26.09-32.75"/></clipPath><clipPath id="clip-path-5" transform="translate(-10.17 42.66)"><rect class="cls-1" x="10.17" y="154.28" width="411.81" height="310.34"/></clipPath><linearGradient id="linear-gradient-2" y1="-304.19" y2="-304.19" gradientTransform="matrix(0, -539.73, -539.73, 0, -163976.14, 535.8)" xlink:href="#linear-gradient"/><clipPath id="clip-path-6" transform="translate(-10.17 42.66)"><path class="cls-1" d="M316.07,525.51s-44.4-13.58-73.44-29.27-59.46-30.92-64-31.36-53-16.88-75.77-10.26l-0.23,2.3s39.25-4.15,75.56,13.18,105.13,62.26,138.15,60.28-0.23-4.87-.23-4.87"/></clipPath><clipPath id="clip-path-7" transform="translate(-10.17 42.66)"><rect class="cls-1" x="104.86" y="402.45" width="246.66" height="62.07"/></clipPath><linearGradient id="linear-gradient-3" y1="-304.19" y2="-304.19" gradientTransform="matrix(0, -539.74, -539.74, 0, -163975.77, 535.7)" xlink:href="#linear-gradient"/><clipPath id="clip-path-8" transform="translate(-10.17 42.66)"><path class="cls-1" d="M310.87,436.59s-38.71-4.91-54.35-9.18L254,431.5l58.43,11.41s-2.77-6.43-1.54-6.31"/></clipPath><clipPath id="clip-path-9" transform="translate(-10.17 42.66)"><rect class="cls-1" x="253.12" y="380.49" width="57.75" height="15.65"/></clipPath><linearGradient id="linear-gradient-4" y1="-304.19" y2="-304.19" gradientTransform="matrix(0, -539.67, -539.67, 0, -163893.38, 534.59)" xlink:href="#linear-gradient"/><clipPath id="clip-path-10" transform="translate(-10.17 42.66)"><path class="cls-1" d="M95.54,531.49s51.89,2.17,95.39-7.6,58.27-19.14,58.27-19.14l7.09,3.14s-32.4,16.67-69,22.45-96.73,8.4-96.73,8.4Z"/></clipPath><clipPath id="clip-path-11" transform="translate(-10.17 42.66)"><rect class="cls-1" x="91.63" y="460.69" width="165.15" height="5.4"/></clipPath><linearGradient id="linear-gradient-5" y1="-304.19" y2="-304.19" gradientTransform="matrix(0, -539.72, -539.72, 0, -164015.18, 537.27)" xlink:href="#linear-gradient"/></defs><title>Joseph</title><g class="cls-2"><g id="Layers"><g id="Brown_Joseph" data-name="Brown Joseph"><g class="cls-3"><g class="cls-4"><g class="cls-5"><g class="cls-6"><rect class="cls-7" x="101.76" width="181.89" height="158.14"/></g></g><g class="cls-8"><g class="cls-9"><rect class="cls-10" y="196.94" width="411.81" height="310.34"/></g></g><g class="cls-11"><g class="cls-12"><rect class="cls-13" x="94.7" y="445.11" width="246.66" height="62.07"/></g></g><g class="cls-14"><g class="cls-15"><rect class="cls-16" x="242.95" y="423.16" width="57.75" height="15.65"/></g></g><g class="cls-17"><g class="cls-18"><rect class="cls-19" x="81.47" y="503.35" width="165.15" height="5.4"/></g></g></g></g><text class="cls-20" transform="translate(394.63 142.35)">I think I want to be a Staff Assistant. Has <tspan x="9.7" y="50.4">a</tspan><tspan x="30.99" y="50.4">n</tspan><tspan x="53.67" y="50.4">y</tspan><tspan x="74.63" y="50.4">one in </tspan><tspan x="193.66" y="50.4">m</tspan><tspan x="227.47" y="50.4">y position done that before </tspan><tspan x="54.28" y="100.8">and, if so, what path did th</tspan><tspan x="528.03" y="100.8">e</tspan><tspan x="549.5" y="100.8">y ta</tspan><tspan class="cls-21" x="616.06" y="100.8">k</tspan><tspan x="636.81" y="100.8">e?</tspan></text><circle class="cls-22" cx="742.12" cy="306.67" r="18"/><circle class="cls-22" cx="743.29" cy="368.67" r="18"/><circle class="cls-22" cx="742.12" cy="427.92" r="18"/></g></g></g></svg>