<svg xmlns="http://www.w3.org/2000/svg" xmlns:xlink="http://www.w3.org/1999/xlink" width="1163.99" height="538.07" viewBox="0 0 1163.99 538.07"><defs><style>.cls-1{fill:none;}.cls-2{isolation:isolate;}.cls-3{mix-blend-mode:multiply;}.cls-4{clip-path:url(#clip-path);}.cls-5{clip-path:url(#clip-path-2);}.cls-6{clip-path:url(#clip-path-3);}.cls-7{fill:url(#linear-gradient);}.cls-8{clip-path:url(#clip-path-4);}.cls-9{clip-path:url(#clip-path-5);}.cls-10{fill:url(#linear-gradient-2);}.cls-11{clip-path:url(#clip-path-6);}.cls-12{clip-path:url(#clip-path-7);}.cls-13{fill:url(#linear-gradient-3);}.cls-14{font-size:42px;fill:#fa3838;font-family:Lato;}.cls-15{letter-spacing:-1px;}.cls-16{white-space:pre;}.cls-17{fill:#fd3838;}</style><clipPath id="clip-path" transform="translate(0 73.35)"><rect class="cls-1" x="1.26" y="-17" width="425.2" height="537.96"/></clipPath><clipPath id="clip-path-2" transform="translate(0 73.35)"><path class="cls-1" d="M201,3s45.82-1.58,70,25.87,14.14,62.48,8.11,85.8c0,0-15.47,42.17-15.71,44.7s-1.84-34.25-6.57-44.9,3.5-40.42-14.14-52.29c-14.53-9.76-46.4-6.72-43.27-7.28,0,0-36.51-11.11-54.3,8.54S137,98.67,134.27,114s-4.57,34.92-4.57,34.92-6.41-43.28-7.37-59.94S110,5.12,201,3"/></clipPath><clipPath id="clip-path-3" transform="translate(0 73.35)"><rect class="cls-1" x="108.8" y="-55.95" width="184.62" height="160.47"/></clipPath><linearGradient id="linear-gradient" y1="-304.19" x2="1" y2="-304.19" gradientTransform="matrix(0, -536.68, -536.68, 0, -163053.73, 563.77)" gradientUnits="userSpaceOnUse"><stop offset="0" stop-color="#bf2b2b"/><stop offset="0.05" stop-color="#d22f2f"/><stop offset="0.12" stop-color="#e63333"/><stop offset="0.2" stop-color="#f43737"/><stop offset="0.3" stop-color="#fc3838"/><stop offset="0.46" stop-color="#ff3939"/><stop offset="0.97" stop-color="#ff3939"/><stop offset="1" stop-color="#ff3939"/></linearGradient><clipPath id="clip-path-4" transform="translate(0 73.35)"><path class="cls-1" d="M146.41,233.73s41.43,53.4,54.64,56.7c7.6,1.89,61.2-66.87,61.2-66.87s7.83,0.49,11.4,6.43c0,0,86.73,19.54,101,41.5s34.46,113.81,45.15,185.95,5.37,89.77,5.37,89.77H1.26S19.08,351.44,20.27,336s5.93-52.18,51.05-67.61,64.7-20.72,75.09-34.66"/></clipPath><clipPath id="clip-path-5" transform="translate(0 73.35)"><rect class="cls-1" y="167.66" width="428.98" height="297.07"/></clipPath><linearGradient id="linear-gradient-2" y1="-304.19" y2="-304.19" gradientTransform="matrix(0, -536.22, -536.22, 0, -162901.96, 564.33)" xlink:href="#linear-gradient"/><clipPath id="clip-path-6" transform="translate(0 73.35)"><path class="cls-1" d="M147.51,16.51A194.75,194.75,0,0,1,180,.67,59.17,59.17,0,0,0,205.49-17s1.13,7.47,22.95,18.12,36.3,17.1,41,26.52-51.14,5.75-51.14,5.75-72.5-17.54-70.81-16.88"/></clipPath><clipPath id="clip-path-7" transform="translate(0 73.35)"><rect class="cls-1" x="144.53" y="-73.35" width="128.27" height="53.67"/></clipPath><linearGradient id="linear-gradient-3" y1="-304.19" y2="-304.19" gradientTransform="matrix(0, -536.69, -536.69, 0, -163049.66, 564.35)" xlink:href="#linear-gradient"/></defs><title>Matt</title><g class="cls-2"><g id="Layers"><g id="Red_Matt" data-name="Red Matt"><g class="cls-3"><g class="cls-4"><g class="cls-5"><g class="cls-6"><rect class="cls-7" x="108.8" y="17.4" width="184.62" height="160.47"/></g></g><g class="cls-8"><g class="cls-9"><rect class="cls-10" y="241.01" width="428.98" height="297.07"/></g></g><g class="cls-11"><g class="cls-12"><rect class="cls-13" x="144.53" width="128.27" height="53.67"/></g></g></g></g><text class="cls-14" transform="translate(389.86 173.31)">I li<tspan class="cls-15" x="42.5" y="0">k</tspan><tspan x="63.25" y="0">e to know where I am going, and I want </tspan><tspan x="40" y="50.4">to plan out </tspan><tspan x="244.29" y="50.4">m</tspan><tspan x="278.1" y="50.4">y n</tspan><tspan class="cls-15" x="331.06" y="50.4">e</tspan><tspan x="351.81" y="50.4">xt fi</tspan><tspan x="420.69" y="50.4">v</tspan><tspan x="441.65" y="50.4">e career m</tspan><tspan x="633.12" y="50.4">ov</tspan><tspan class="cls-16" x="676.89" y="50.4">es.  </tspan><tspan x="225.2" y="100.8">Where do I start?</tspan></text><circle class="cls-17" cx="751.71" cy="335.99" r="18"/><circle class="cls-17" cx="752.88" cy="397.98" r="18"/><circle class="cls-17" cx="751.71" cy="457.24" r="18"/></g></g></g></svg>