<svg xmlns="http://www.w3.org/2000/svg" xmlns:xlink="http://www.w3.org/1999/xlink" width="1133.88" height="532.34" viewBox="0 0 1133.88 532.34"><defs><style>.cls-1{fill:none;}.cls-2{isolation:isolate;}.cls-3{font-size:42px;font-family:Lato;}.cls-3,.cls-5{fill:#f88e12;}.cls-4{letter-spacing:-2px;}.cls-6{clip-path:url(#clip-path);}.cls-7{mix-blend-mode:multiply;}.cls-8{clip-path:url(#clip-path-2);}.cls-9{clip-path:url(#clip-path-3);}.cls-10{clip-path:url(#clip-path-4);}.cls-11{fill:url(#linear-gradient);}.cls-12{clip-path:url(#clip-path-5);}.cls-13{clip-path:url(#clip-path-6);}.cls-14{fill:url(#linear-gradient-2);}.cls-15{clip-path:url(#clip-path-7);}.cls-16{clip-path:url(#clip-path-8);}.cls-17{fill:url(#linear-gradient-3);}.cls-18{clip-path:url(#clip-path-9);}.cls-19{clip-path:url(#clip-path-10);}.cls-20{fill:url(#linear-gradient-4);}.cls-21{clip-path:url(#clip-path-11);}.cls-22{clip-path:url(#clip-path-12);}.cls-23{fill:url(#linear-gradient-5);}.cls-24{clip-path:url(#clip-path-13);}.cls-25{clip-path:url(#clip-path-14);}.cls-26{fill:url(#linear-gradient-6);}</style><clipPath id="clip-path" transform="translate(-2.7 59.45)"><rect class="cls-1" x="2.61" width="435.72" height="464.62"/></clipPath><clipPath id="clip-path-2" transform="translate(-2.7 59.45)"><rect class="cls-1" x="1" y="-12.7" width="420.81" height="533.45"/></clipPath><clipPath id="clip-path-3" transform="translate(-2.7 59.45)"><path class="cls-1" d="M199.46-.38S244.07,4.17,268,31.34s14,61.84,8,84.92c0,0-15.31,41.73-15.56,44.23s-1.82-33.89-6.5-44.44,3.47-40-14-51.75-42.83-7.21-42.83-7.21-36.14-11-53.73,8.45-8,34.86-10.76,50-4.53,34.56-4.53,34.56-6.34-42.83-7.29-59.32S105.34,14.64,199.46-.38"/></clipPath><clipPath id="clip-path-4" transform="translate(-2.7 59.45)"><rect class="cls-1" x="103.99" y="-51.48" width="186.22" height="163.1"/></clipPath><linearGradient id="linear-gradient" y1="-304.19" x2="1" y2="-304.19" gradientTransform="matrix(0, -624.89, -624.89, 0, -189889.22, 560.28)" gradientUnits="userSpaceOnUse"><stop offset="0" stop-color="#ba6b0e"/><stop offset="0.04" stop-color="#ba6b0e"/><stop offset="0.08" stop-color="#cb740f"/><stop offset="0.14" stop-color="#df8010"/><stop offset="0.21" stop-color="#ed8811"/><stop offset="0.29" stop-color="#f58d12"/><stop offset="0.42" stop-color="#f88e12"/><stop offset="1" stop-color="#f88e12"/></linearGradient><clipPath id="clip-path-5" transform="translate(-2.7 59.45)"><path class="cls-1" d="M144.66,234.07s45.45,77.69,58.52,81c7.53,1.88,56.12-91,56.12-91s7.75,0.48,11.28,6.35c0,0,85.84,19.34,99.94,41.08s34.1,112.66,44.69,184,5.31,88.86,5.31,88.86H1s17.63-193.77,18.8-209,5.87-51.65,50.53-66.92,64-20.51,74.33-34.31"/></clipPath><clipPath id="clip-path-6" transform="translate(-2.7 59.45)"><rect class="cls-1" x="2.7" y="176.29" width="424.6" height="296.6"/></clipPath><linearGradient id="linear-gradient-2" y1="-304.19" y2="-304.19" gradientTransform="matrix(0, -624.41, -624.41, 0, -189732.36, 563.44)" xlink:href="#linear-gradient"/><clipPath id="clip-path-7" transform="translate(-2.7 59.45)"><path class="cls-1" d="M153.17,58.1a56.25,56.25,0,0,1,44.06.89c23.51,10.57,34.38,58.75,60.81,61.39,0,0,25-62-34.37-79.32S166.32,31,153.17,58.1"/></clipPath><clipPath id="clip-path-8" transform="translate(-2.7 59.45)"><rect class="cls-1" x="151.89" y="-27.47" width="128.73" height="96.86"/></clipPath><linearGradient id="linear-gradient-3" y1="-304.19" y2="-304.19" gradientTransform="matrix(0, -624.89, -624.89, 0, -189885.11, 560.64)" xlink:href="#linear-gradient"/><clipPath id="clip-path-9" transform="translate(-2.7 59.45)"><path class="cls-1" d="M199.46-.38S184.31-3.3,174.92-4.18A16.19,16.19,0,0,1,162-12.7s-13.51,20,1.47,31.73S211,17.85,211,17.85Z"/></clipPath><clipPath id="clip-path-10" transform="translate(-2.7 59.45)"><rect class="cls-1" x="151.93" y="-59.45" width="62.49" height="42.49"/></clipPath><linearGradient id="linear-gradient-4" y1="-304.19" y2="-304.19" gradientTransform="matrix(0, -624.91, -624.91, 0, -189909.35, 564.5)" xlink:href="#linear-gradient"/><clipPath id="clip-path-11" transform="translate(-2.7 59.45)"><path class="cls-1" d="M250.93,121.86c-4.2-.22-12.14-1.71-23.36-1.48s-14.8,1.14-23.88,4-11,2.39-11,2.39v6.69s5.06-1.25,7.45,7.6,10.18,22.67,30.92,21.2,20.85-18,22.1-25.28,4-6.92,4-6.92l0.93-7.37a61.74,61.74,0,0,0-7.23-.79m-1.71,17.46c-0.67,13.38-9.29,22-24,20.18s-18-11.12-19.62-17.69-1.24-10.42,3.07-13.94,14.51-3.74,14.51-3.74c20.22-.91,26.76,1.81,26.07,15.19"/></clipPath><clipPath id="clip-path-12" transform="translate(-2.7 59.45)"><rect class="cls-1" x="195.26" y="71.51" width="64.99" height="43.12"/></clipPath><linearGradient id="linear-gradient-5" y1="-304.19" y2="-304.19" gradientTransform="matrix(0, -624.88, -624.88, 0, -189859.31, 562.45)" xlink:href="#linear-gradient"/><clipPath id="clip-path-13" transform="translate(-2.7 59.45)"><path class="cls-1" d="M129.61,122.65l0.9,7.37s2.73-.34,4,6.92,1.24,23.8,22,25.28,29.28-12.36,31.66-21.2,8-7.6,8-7.6v-6.69s-2.4.45-11.49-2.39-12.7-3.74-23.93-4-19.39,1.25-23.59,1.48a71.84,71.84,0,0,0-7.49.79m35,1.48s10.21,0.22,14.51,3.74,4.65,7.37,3.07,13.94-4.88,15.87-19.62,17.69-23.35-6.8-24-20.18,5.86-16.1,26.08-15.19"/></clipPath><clipPath id="clip-path-14" transform="translate(-2.7 59.45)"><rect class="cls-1" x="129.3" y="71.51" width="64.99" height="43.12"/></clipPath><linearGradient id="linear-gradient-6" y1="-304.19" y2="-304.19" gradientTransform="matrix(0, -624.88, -624.88, 0, -189925.59, 562.45)" xlink:href="#linear-gradient"/></defs><title>Parker</title><g class="cls-2"><g id="Layers"><g id="Yellow_Parker" data-name="Yellow Parker"><text class="cls-3" transform="translate(442 157.72)">I want to be an IT Manager at some <tspan x="-46.73" y="50.4">point in </tspan><tspan x="99.9" y="50.4">m</tspan><tspan x="133.71" y="50.4">y caree</tspan><tspan class="cls-4" x="265.16" y="50.4">r</tspan><tspan x="279.32" y="50.4">. What are some paths </tspan><tspan x="-35.66" y="100.8">to get there? What’s the shortest path?</tspan></text><circle class="cls-5" cx="749.5" cy="322.99" r="18"/><circle class="cls-5" cx="750.67" cy="384.98" r="18"/><circle class="cls-5" cx="749.5" cy="442.24" r="18"/><g class="cls-6"><g class="cls-7"><g class="cls-8"><g class="cls-9"><g class="cls-10"><rect class="cls-11" x="101.29" y="7.97" width="186.22" height="163.1"/></g></g><g class="cls-12"><g class="cls-13"><rect class="cls-14" y="235.74" width="424.6" height="296.6"/></g></g><g class="cls-15"><g class="cls-16"><rect class="cls-17" x="149.18" y="31.98" width="128.73" height="96.86"/></g></g><g class="cls-18"><g class="cls-19"><rect class="cls-20" x="149.23" width="62.49" height="42.49"/></g></g><g class="cls-21"><g class="cls-22"><rect class="cls-23" x="192.56" y="130.97" width="64.99" height="43.12"/></g></g><g class="cls-24"><g class="cls-25"><rect class="cls-26" x="126.6" y="130.97" width="64.99" height="43.12"/></g></g></g></g></g></g></g></g></svg>